<?xml version="1.0" standalone="no"?>
<!DOCTYPE svg PUBLIC "-//W3C//DTD SVG 20010904//EN"
 "http://www.w3.org/TR/2001/REC-SVG-20010904/DTD/svg10.dtd">
<svg version="1.0" xmlns="http://www.w3.org/2000/svg"
 width="238.000000pt" height="55.000000pt" viewBox="0 0 238.000000 55.000000"
 preserveAspectRatio="xMidYMid meet">

<g transform="translate(0.000000,55.000000) scale(0.100000,-0.100000)"
fill="#000000" stroke="none">
<path d="M814 415 c-8 -19 3 -35 26 -35 19 0 30 17 23 38 -6 17 -42 15 -49 -3z"/>
<path d="M1364 415 c-4 -9 -2 -21 4 -27 15 -15 44 -1 40 19 -4 23 -36 29 -44
8z"/>
<path d="M130 305 c0 -96 3 -115 15 -115 11 0 15 13 15 54 0 58 16 86 49 86
28 0 40 -21 43 -80 2 -31 8 -55 16 -58 9 -3 12 14 12 61 0 83 -15 101 -77 94
l-43 -5 0 39 c0 28 -4 39 -15 39 -12 0 -15 -19 -15 -115z"/>
<path d="M1052 308 c3 -109 4 -113 26 -116 20 -3 22 0 22 51 0 60 16 83 50 72
17 -5 20 -15 20 -66 0 -56 1 -59 25 -59 24 0 25 3 25 60 0 51 -4 65 -25 85
-26 27 -46 31 -76 15 -17 -10 -19 -7 -19 30 0 36 -2 40 -25 40 l-26 0 3 -112z"/>
<path d="M1250 321 c0 -107 6 -120 56 -124 20 -1 29 3 32 16 2 11 -3 17 -16
17 -23 0 -32 34 -32 126 0 57 -2 64 -20 64 -19 0 -20 -7 -20 -99z"/>
<path d="M30 375 c0 -9 -7 -18 -15 -21 -8 -4 -15 -10 -15 -15 0 -5 7 -9 15 -9
12 0 15 -13 15 -60 0 -48 4 -61 19 -70 27 -14 41 -13 41 5 0 8 -7 15 -15 15
-12 0 -15 13 -15 55 0 48 2 55 20 55 11 0 20 5 20 10 0 6 -9 10 -20 10 -13 0
-20 7 -20 20 0 11 -7 20 -15 20 -8 0 -15 -7 -15 -15z"/>
<path d="M1620 370 c0 -11 -7 -20 -15 -20 -8 0 -15 -6 -15 -14 0 -8 7 -16 15
-20 10 -4 15 -19 15 -49 0 -48 10 -62 53 -72 23 -6 27 -4 27 14 0 12 -6 21
-14 21 -31 0 -37 79 -6 87 11 3 20 11 20 18 0 7 -9 15 -20 18 -11 3 -20 12
-20 21 0 9 -8 16 -20 16 -13 0 -20 -7 -20 -20z"/>
<path d="M520 353 c0 -5 13 -42 28 -83 21 -58 32 -76 49 -78 17 -3 25 6 41 50
17 44 22 49 28 33 26 -72 34 -85 52 -85 15 0 26 16 46 71 30 82 32 102 10 97
-9 -2 -25 -27 -37 -58 l-20 -55 -19 58 c-26 75 -50 78 -75 7 -10 -27 -20 -50
-23 -50 -3 0 -14 23 -24 50 -13 36 -23 50 -37 50 -10 0 -19 -3 -19 -7z"/>
<path d="M814 347 c-3 -8 -4 -45 -2 -83 3 -63 5 -69 26 -72 21 -3 22 -1 22 82
0 80 -1 86 -20 86 -11 0 -23 -6 -26 -13z"/>
<path d="M912 344 c-16 -11 -22 -24 -20 -42 2 -22 11 -30 46 -40 54 -18 54
-34 0 -30 -33 2 -44 -1 -46 -13 -6 -32 83 -39 118 -11 18 14 21 25 17 44 -5
20 -16 28 -52 37 -54 13 -51 34 3 29 28 -2 38 1 40 13 6 30 -70 39 -106 13z"/>
<path d="M1360 276 c0 -85 0 -86 25 -86 26 0 26 0 23 83 -3 76 -5 82 -25 85
-22 3 -23 1 -23 -82z"/>
<path d="M1455 336 c-21 -22 -24 -29 -15 -46 12 -22 16 -24 63 -34 46 -11 32
-29 -17 -24 -51 6 -70 -14 -34 -33 41 -22 128 6 128 41 0 18 -30 43 -60 49
-51 10 -53 34 -1 29 29 -2 42 1 46 11 7 19 3 22 -43 28 -34 5 -45 1 -67 -21z"/>
<path d="M330 330 c-31 -31 -27 -93 6 -119 29 -23 64 -27 95 -11 33 18 22 31
-21 24 -26 -4 -45 -2 -55 6 -27 22 -16 30 45 30 57 0 60 1 60 25 0 36 -33 65
-75 65 -22 0 -43 -8 -55 -20z m88 -12 c25 -25 13 -38 -33 -38 -30 0 -45 4 -45
13 0 19 21 37 45 37 12 0 26 -5 33 -12z"/>
</g>
</svg>
